<svg width="62" height="22" viewBox="0 0 62 22" fill="none" xmlns="http://www.w3.org/2000/svg">
<g clip-path="url(#clip0_36_286)">
<path d="M2.52954 1.79793V2.38287C2.56674 3.36188 3.40374 4.14386 4.44534 4.1808H4.76774C5.80934 4.14386 6.64634 3.36188 6.68354 2.38287V1.79793C6.64634 0.81892 5.80934 0.0369437 4.76774 0H4.44534C3.40374 0.0369437 2.56674 0.81892 2.52954 1.79793ZM29.7351 8.72488V16.7355C29.7351 18.1271 30.2745 18.7551 31.9857 18.7551C32.7049 18.7551 33.4055 18.5581 33.8271 18.4103V21.6367C33.1079 21.8769 32.0167 21.9938 31.1177 21.9938C27.5217 21.9938 25.8229 20.2082 25.8229 17.1173V0.95438H29.7351V6.09572H33.8271V8.72488H29.7351Z" fill="#FF7A00"/>
<path fill-rule="evenodd" clip-rule="evenodd" d="M35.1541 13.5953C35.1541 8.84803 38.1673 5.61545 42.9909 5.61545C48.1431 5.61545 50.6975 9.34677 50.4247 14.759H39.1717C39.3763 17.536 40.6845 18.946 43.0095 18.946C44.9749 18.946 46.0165 18.0039 46.4691 16.6739H50.2945C49.5505 19.9373 46.9527 21.9938 42.9909 21.9938C38.1053 21.9938 35.1541 18.7921 35.1541 13.9832V13.5953ZM42.9599 8.73104C40.8147 8.73104 39.5313 9.87014 39.1717 12.136L46.4939 12.0744C46.2831 9.9625 45.1361 8.73104 42.9599 8.73104Z" fill="#FF7A00"/>
<path d="M17.9676 5.62161C15.4504 5.62161 13.9004 7.09935 13.1192 8.55248L12.9394 6.09572H9.207V21.5197H13.1192V12.8503C13.1192 10.2888 14.4832 8.72488 16.5478 8.72488C18.6124 8.72488 19.375 10.0795 19.375 12.4316V21.5197H23.2872V11.5942C23.2996 8.15225 21.7992 5.62161 17.9676 5.62161ZM56.5254 8.54632C57.5174 6.61293 59.5448 5.61545 61.07 5.61545C61.3428 5.61545 61.7706 5.65239 62 5.70165V8.71872C61.6218 8.68178 61.2436 8.66331 60.8654 8.65715C58.0816 8.65715 56.5254 10.3196 56.5254 13.1397V21.5074H52.6132V6.09572H56.4076L56.5254 8.54632ZM0 6.09572V8.72488H2.6474V21.5197H6.5596V6.09572H0Z" fill="#FF7A00"/>
</g>
<defs>
<clipPath id="clip0_36_286">
<rect width="62" height="22" fill="white"/>
</clipPath>
</defs>
</svg>
