<svg width="40" height="22" viewBox="0 0 40 22" fill="none" xmlns="http://www.w3.org/2000/svg">
<g clip-path="url(#clip0_36_206)">
<path d="M7.22415 2.09714C8.48815 0.773469 10.1601 0 12.1361 0C15.9761 0 18.5201 2.79087 19.0081 6.97717C19.1681 8.3407 19.1681 10.2544 19.1601 12.4712V21.4817H13.8801V15.3338C13.8801 15.3338 13.8721 10.071 13.8401 9.08228C13.6961 4.80029 11.1521 2.10511 7.22415 2.09714C6.03215 3.35701 5.40015 4.88003 5.30415 7.21638C5.28815 7.54331 5.29615 8.69953 5.29615 10.2146C5.29615 11.004 5.30415 11.8891 5.30415 12.8141V21.4897H0.0241485V12.0246C0.0241485 11.6977 0.0161485 11.3708 0.0161485 11.0439C0.00814853 10.382 -0.00785147 9.72019 0.0241485 9.05835C0.0801485 7.95796 0.272149 6.8735 0.792148 5.86879C1.96815 3.57231 4.38415 2.08916 6.95215 2.08916C7.04015 2.08916 7.12815 2.09714 7.22415 2.09714Z" fill="#820AD1"/>
<path d="M39.976 12.9416C40.008 12.2798 40 11.618 39.984 10.9561C39.976 10.6292 39.976 10.3023 39.976 9.97535V0.510331H34.696V9.18594C34.696 10.1109 34.696 10.996 34.704 11.7854C34.712 13.3084 34.712 14.4647 34.696 14.7836C34.6 17.12 33.968 18.643 32.784 19.8949C28.856 19.8949 26.304 17.1997 26.168 12.9177C26.136 11.9369 26.12 9.48895 26.12 6.66618V0.502357L20.84 0.510331V9.52084C20.84 11.7376 20.84 13.6593 20.992 15.0149C21.48 19.2012 24.024 21.992 27.864 21.992C29.832 21.992 31.512 21.2186 32.776 19.8949C32.864 19.8949 32.952 19.9029 33.048 19.9029C35.624 19.9029 38.032 18.4197 39.208 16.1232C39.728 15.1185 39.92 14.042 39.976 12.9416Z" fill="#820AD1"/>
</g>
<defs>
<clipPath id="clip0_36_206">
<rect width="40" height="22" fill="white"/>
</clipPath>
</defs>
</svg>
