<svg width="68" height="22" viewBox="0 0 68 22" fill="none" xmlns="http://www.w3.org/2000/svg">
<g clip-path="url(#clip0_36_239)">
<path d="M13.9908 17.7645H17.1669V8.46825H13.9908V17.7645ZM18.2661 2.14235H16.1257V4.29025H18.2661V2.14235ZM6.2612 3.1872H3.19146V5.88316H6.04233C7.85131 5.88316 8.89251 6.7631 8.89251 8.41352C8.89251 10.0639 7.85131 10.9986 6.04233 10.9986H3.19146V5.94067H0.0153809V17.7645H3.19146V13.6939H6.20666C9.87916 13.6939 12.0175 11.7137 12.0175 8.30335C12.0175 5.11269 9.9344 3.1872 6.2612 3.1872ZM20.4044 0H13.9908V6.4326H20.4044V0ZM19.3625 5.3351H15.0872V1.04208H19.3625V5.3351ZM38.0005 3.1872H35.0951V5.88316H37.8355C39.6445 5.88316 40.6864 6.7631 40.6864 8.41352C40.6864 10.0639 39.6445 10.9986 37.8355 10.9986H35.0951V5.94067H31.9191V17.7645H35.0951V13.6939H38.0005C41.6731 13.6939 43.8107 11.7137 43.8107 8.30335C43.8107 5.11269 41.6731 3.1872 38.0005 3.1872ZM64.6961 6.5982L61.9551 13.5269L59.214 6.5982H55.9253L60.3104 17.7645L58.6112 22H61.9551L67.9848 6.5982H64.6961ZM50.4439 6.54277C48.5251 6.54277 47.0448 6.98274 45.4001 7.80795L46.3875 10.0085C47.5384 9.3482 48.6894 9.01839 49.7306 9.01839C51.2655 9.01839 52.0333 9.6787 52.0333 10.8891V11.1095H48.9615C46.2204 11.1095 44.7407 12.3747 44.7407 14.465C44.7407 16.5 46.1658 17.9294 48.5776 17.9294C50.1124 17.9294 51.2089 17.3799 52.0857 16.4446V17.6543H55.2107V10.3937C55.1065 8.02828 53.4038 6.54277 50.4439 6.54277ZM52.3081 14.0258C51.9794 14.9604 51.0473 15.7309 49.7313 15.7309C48.6356 15.7309 47.9776 15.1808 47.9776 14.3008C47.9776 13.4209 48.5803 13.0357 49.7865 13.0357H52.3081V14.0258ZM25.2824 15.3443C23.7476 15.3443 22.6518 14.1339 22.6518 12.3185C22.6518 10.5586 23.7476 9.3482 25.2824 9.3482C26.3789 9.3482 27.2012 9.78817 27.8047 10.5586L29.9451 9.01839C28.9584 7.53288 27.2592 6.65294 25.1209 6.65294C21.777 6.5982 19.4751 8.90823 19.4751 12.3185C19.4751 15.7288 21.777 17.9848 25.1209 17.9848C27.4235 17.9848 29.1255 17.0494 30.0548 15.5092L27.862 14.0244C27.311 14.9043 26.4341 15.3443 25.2824 15.3443Z" fill="#21C25E"/>
</g>
<defs>
<clipPath id="clip0_36_239">
<rect width="68" height="22" fill="white"/>
</clipPath>
</defs>
</svg>
