<svg width="32" height="32" viewBox="0 0 32 32" fill="none" xmlns="http://www.w3.org/2000/svg">
<path fill-rule="evenodd" clip-rule="evenodd" d="M2.74213 19.9294C1.22895 19.9294 0 21.1629 0 22.6818C0 24.2008 1.22895 25.4473 2.74213 25.4473C3.03796 25.4473 3.32903 25.3978 3.60876 25.3044C8.0746 32.177 16.9359 33.7629 23.4244 30.0433C23.614 29.9345 23.6879 29.6624 23.5796 29.4721C23.4712 29.2817 23.2001 29.2075 23.0105 29.3163C16.9112 32.8127 8.58458 31.3633 4.34602 24.9149C5.03484 24.4127 5.48426 23.5988 5.48426 22.6818C5.48426 21.1629 4.25544 19.9294 2.74213 19.9294Z" fill="#61C0BF"/>
<path fill-rule="evenodd" clip-rule="evenodd" d="M23.4245 4.44028C23.0786 4.4844 22.9745 5.0549 23.2822 5.21926C28.1658 8.20798 30.8926 14.0563 29.6977 19.9683C29.5548 19.9439 29.4061 19.9294 29.2579 19.9294C27.7447 19.9294 26.5158 21.1629 26.5158 22.6818C26.5158 24.2008 27.7447 25.4473 29.2579 25.4473C30.7711 25.4473 32 24.2008 32 22.6818C32 21.6085 31.3866 20.6782 30.4867 20.228C31.7985 13.9404 28.9117 7.68916 23.7091 4.50522C23.64 4.46114 23.5578 4.43823 23.4761 4.4403C23.4587 4.43921 23.4419 4.43919 23.4245 4.44028Z" fill="#61C0BF"/>
<path fill-rule="evenodd" clip-rule="evenodd" d="M16 0C14.5409 0 13.3548 1.15267 13.2709 2.59665C7.0174 3.75797 2.46085 8.72488 1.42285 14.6192C1.41095 14.6739 1.4102 14.7305 1.42065 14.7856C1.4311 14.8406 1.45253 14.893 1.48366 14.9395C1.51479 14.986 1.55497 15.0257 1.60178 15.0562C1.6486 15.0868 1.70108 15.1075 1.75607 15.1171C1.81106 15.1268 1.86743 15.1251 1.92178 15.1123C1.97613 15.0995 2.02734 15.0759 2.07233 15.0427C2.11732 15.0095 2.15517 14.9675 2.18358 14.9193C2.212 14.8711 2.2304 14.8176 2.23768 14.762C3.21267 9.2257 7.46979 4.55445 13.3354 3.4276C13.636 4.62228 14.7182 5.50492 16 5.50492C17.5132 5.50492 18.7421 4.2714 18.7421 2.75246C18.7421 1.23352 17.5132 0 16 0Z" fill="#61C0BF"/>
</svg>
