<svg width="260" height="55" viewBox="0 0 260 55" fill="none" xmlns="http://www.w3.org/2000/svg">
<g clip-path="url(#clip0_3_164)">
<path fill-rule="evenodd" clip-rule="evenodd" d="M4.5827 34.0041C2.05384 34.0041 -3.8147e-06 36.073 -3.8147e-06 38.6205C-3.8147e-06 41.1681 2.05384 43.2588 4.5827 43.2588C5.0771 43.2588 5.56354 43.1758 6.03103 43.0192C13.4944 54.546 28.3037 57.2058 39.1474 50.9673C39.4642 50.7849 39.5878 50.3285 39.4067 50.0092C39.2256 49.69 38.7725 49.5655 38.4556 49.7479C28.2624 55.6122 14.3467 53.1812 7.26316 42.366C8.41432 41.5236 9.1654 40.1585 9.1654 38.6205C9.1654 36.073 7.11178 34.0041 4.5827 34.0041Z" fill="#61C0BF"/>
<path fill-rule="evenodd" clip-rule="evenodd" d="M39.1474 8.02559C38.5695 8.09958 38.3955 9.05645 38.9097 9.33211C47.0712 14.3448 51.6283 24.1537 49.6313 34.0694C49.3925 34.0285 49.144 34.0041 48.8964 34.0041C46.3675 34.0041 44.3137 36.073 44.3137 38.6205C44.3137 41.1681 46.3675 43.2588 48.8964 43.2588C51.4252 43.2588 53.4791 41.1681 53.4791 38.6205C53.4791 36.8204 52.4539 35.26 50.95 34.505C53.1423 23.9592 48.3178 13.4747 39.6231 8.13451C39.5077 8.06058 39.3703 8.02214 39.2338 8.02563C39.2047 8.0238 39.1765 8.02376 39.1474 8.02559Z" fill="#61C0BF"/>
<path fill-rule="evenodd" clip-rule="evenodd" d="M26.7395 0.578289C24.3011 0.578289 22.3188 2.51156 22.1786 4.93343C11.7276 6.8812 4.11263 15.2118 2.37791 25.0978C2.35802 25.1896 2.35676 25.2845 2.37423 25.3769C2.39169 25.4692 2.42751 25.557 2.47954 25.635C2.53156 25.713 2.59871 25.7796 2.67695 25.8308C2.75518 25.882 2.84289 25.9168 2.9348 25.9329C3.0267 25.9491 3.1209 25.9463 3.21173 25.9249C3.30256 25.9034 3.38815 25.8637 3.46334 25.8081C3.53853 25.7524 3.60177 25.682 3.64926 25.6011C3.69675 25.5202 3.7275 25.4305 3.73967 25.3373C5.36909 16.0518 12.4837 8.21708 22.2865 6.3271C22.7888 8.33084 24.5974 9.81121 26.7395 9.81121C29.2684 9.81121 31.3222 7.74233 31.3222 5.19475C31.3222 2.64717 29.2684 0.578289 26.7395 0.578289Z" fill="#61C0BF"/>
<path d="M70.1971 36.1906H81.117V38.7576H69.5412H67.4753V15.7206H70.1971H80.8219V18.2875H70.1971V25.9227H78.4608V28.4238H70.1971V36.1906ZM103.514 36.2894C101.416 38.0994 98.7593 39.0867 95.808 39.0867C89.8398 39.0867 84.0683 34.216 84.0683 27.2391C84.0683 20.2621 89.8398 15.3915 95.808 15.3915C98.7265 15.3915 101.35 16.3788 103.416 18.123L101.743 20.0318C100.137 18.7483 98.0707 17.9914 96.0048 17.9914C91.3154 17.9914 86.8885 21.8089 86.8885 27.2391C86.8885 32.6692 91.3154 36.4868 96.0048 36.4868C98.1035 36.4868 100.202 35.697 101.809 34.3806L103.514 36.2894ZM117.877 15.3915C123.846 15.3915 129.617 20.2621 129.617 27.2391C129.617 34.216 123.846 39.0867 117.877 39.0867C111.876 39.0867 106.138 34.216 106.138 27.2391C106.138 20.2621 111.876 15.3915 117.877 15.3915ZM117.877 36.4868C122.37 36.4868 126.797 32.6692 126.797 27.2391C126.797 21.8089 122.37 17.9914 117.877 17.9914C113.352 17.9914 108.958 21.8089 108.958 27.2391C108.958 32.6692 113.352 36.4868 117.877 36.4868ZM149.063 15.7206H151.785V38.7576H149.686L135.782 20.7229V38.7576H133.06V15.7206H135.159L149.063 33.7882V15.7206ZM166.968 15.3915C172.936 15.3915 178.707 20.2621 178.707 27.2391C178.707 34.216 172.936 39.0867 166.968 39.0867C160.967 39.0867 155.228 34.216 155.228 27.2391C155.228 20.2621 160.967 15.3915 166.968 15.3915ZM166.968 36.4868C171.46 36.4868 175.887 32.6692 175.887 27.2391C175.887 21.8089 171.46 17.9914 166.968 17.9914C162.442 17.9914 158.048 21.8089 158.048 27.2391C158.048 32.6692 162.442 36.4868 166.968 36.4868ZM200.711 15.7206H203.597L193.333 38.7576H191.07L180.839 15.7206H183.725L192.218 35.1704L200.711 15.7206ZM208.942 15.7206V38.7576H206.22V15.7206H208.942ZM215.599 36.1906H226.519V38.7576H214.943H212.877V15.7206H215.599H226.224V18.2875H215.599V25.9227H223.863V28.4238H215.599V36.1906ZM260 15.7206L252.589 38.7576H250.818L244.489 20.7558L238.193 38.7576H236.422L228.978 15.7206H231.798L237.406 33.13L243.538 15.7206H245.44L251.605 33.13L257.213 15.7206H260Z" fill="#020122"/>
</g>
<defs>
<clipPath id="clip0_3_164">
<rect width="260" height="53.6707" fill="white" transform="translate(0 0.578312)"/>
</clipPath>
</defs>
</svg>
