<svg width="260" height="87" viewBox="0 0 260 87" fill="none" xmlns="http://www.w3.org/2000/svg">
<path d="M0.516 11L2.352 3.08H5.052C5.748 3.08 6.28 3.244 6.648 3.572C7.016 3.892 7.2 4.324 7.2 4.868C7.2 5.244 7.12 5.588 6.96 5.9C6.8 6.204 6.58 6.456 6.3 6.656C6.02 6.856 5.692 6.992 5.316 7.064C5.788 7.12 6.152 7.292 6.408 7.58C6.672 7.868 6.804 8.216 6.804 8.624C6.804 9.136 6.68 9.568 6.432 9.92C6.192 10.272 5.852 10.54 5.412 10.724C4.972 10.908 4.444 11 3.828 11H0.516ZM1.248 10.448H3.828C4.596 10.448 5.18 10.288 5.58 9.968C5.98 9.648 6.18 9.2 6.18 8.624C6.18 8.368 6.12 8.144 6 7.952C5.888 7.752 5.7 7.596 5.436 7.484C5.18 7.372 4.832 7.316 4.392 7.316H1.98L1.248 10.448ZM2.1 6.764H4.5C4.94 6.764 5.312 6.684 5.616 6.524C5.928 6.356 6.164 6.132 6.324 5.852C6.492 5.572 6.576 5.268 6.576 4.94C6.576 4.508 6.428 4.184 6.132 3.968C5.844 3.744 5.436 3.632 4.908 3.632H2.832L2.1 6.764ZM10.8683 11.108C10.3243 11.108 9.85634 10.988 9.46434 10.748C9.07234 10.508 8.77634 10.184 8.57634 9.776C8.37634 9.36 8.27634 8.904 8.27634 8.408C8.27634 7.784 8.39634 7.204 8.63634 6.668C8.87634 6.132 9.22834 5.704 9.69234 5.384C10.1563 5.056 10.7163 4.892 11.3723 4.892C11.8523 4.892 12.2603 4.996 12.5963 5.204C12.9403 5.412 13.2043 5.696 13.3883 6.056C13.5723 6.408 13.6643 6.812 13.6643 7.268C13.6643 7.388 13.6563 7.516 13.6403 7.652C13.6243 7.788 13.5963 7.924 13.5563 8.06H8.58834V7.544H13.2803L13.0283 7.736C13.0443 7.656 13.0563 7.576 13.0643 7.496C13.0723 7.416 13.0763 7.336 13.0763 7.256C13.0763 6.904 13.0083 6.592 12.8723 6.32C12.7363 6.04 12.5363 5.82 12.2723 5.66C12.0163 5.492 11.7043 5.408 11.3363 5.408C10.9283 5.408 10.5683 5.492 10.2563 5.66C9.95234 5.82 9.69634 6.044 9.48834 6.332C9.28034 6.612 9.12434 6.932 9.02034 7.292C8.92434 7.652 8.87634 8.028 8.87634 8.42C8.87634 8.844 8.96034 9.22 9.12834 9.548C9.29634 9.868 9.53234 10.124 9.83634 10.316C10.1483 10.5 10.5123 10.592 10.9283 10.592C11.3843 10.584 11.7723 10.48 12.0923 10.28C12.4203 10.072 12.6803 9.808 12.8723 9.488L13.3523 9.8C13.1843 10.056 12.9763 10.284 12.7283 10.484C12.4883 10.684 12.2123 10.84 11.9003 10.952C11.5883 11.056 11.2443 11.108 10.8683 11.108ZM14.6097 11L16.0017 5H16.5297L16.2297 6.5L16.1457 6.464C16.3137 5.976 16.6137 5.592 17.0457 5.312C17.4777 5.024 17.9897 4.88 18.5817 4.88C19.0377 4.88 19.4137 4.984 19.7097 5.192C20.0137 5.392 20.2217 5.684 20.3337 6.068C20.4537 6.444 20.4497 6.9 20.3217 7.436L19.4937 11H18.8937L19.7217 7.448C19.8737 6.792 19.8297 6.288 19.5897 5.936C19.3497 5.584 18.9617 5.408 18.4257 5.408C17.9857 5.408 17.6017 5.504 17.2737 5.696C16.9457 5.88 16.6737 6.14 16.4577 6.476C16.2497 6.804 16.0937 7.188 15.9897 7.628L15.2097 11H14.6097ZM23.1897 11L24.0057 7.448C24.1577 6.792 24.1137 6.288 23.8737 5.936C23.6337 5.584 23.2457 5.408 22.7097 5.408C22.2697 5.408 21.8817 5.504 21.5457 5.696C21.2177 5.888 20.9457 6.152 20.7297 6.488C20.5217 6.824 20.3657 7.216 20.2617 7.664L20.2377 6.644C20.4617 6.084 20.8017 5.652 21.2577 5.348C21.7137 5.036 22.2497 4.88 22.8657 4.88C23.3217 4.88 23.7017 4.984 24.0057 5.192C24.3097 5.392 24.5177 5.684 24.6297 6.068C24.7417 6.444 24.7337 6.9 24.6057 7.436L23.7897 11H23.1897ZM34.539 5H35.211L31.407 11H30.795L29.739 5H30.327L31.263 10.544L31.107 10.508L34.539 5ZM37.0635 3.836C36.9275 3.836 36.8155 3.796 36.7275 3.716C36.6475 3.628 36.6075 3.52 36.6075 3.392C36.6075 3.216 36.6595 3.08 36.7635 2.984C36.8675 2.88 36.9915 2.828 37.1355 2.828C37.2715 2.828 37.3795 2.872 37.4595 2.96C37.5475 3.04 37.5915 3.144 37.5915 3.272C37.5915 3.44 37.5395 3.576 37.4355 3.68C37.3395 3.784 37.2155 3.836 37.0635 3.836ZM37.0155 5L35.6235 11H35.0235L36.4155 5H37.0155ZM37.7074 11L39.0994 5H39.6274L39.3274 6.5L39.2434 6.464C39.4114 5.976 39.7114 5.592 40.1434 5.312C40.5834 5.024 41.0994 4.88 41.6914 4.88C42.1634 4.88 42.5554 4.984 42.8674 5.192C43.1874 5.392 43.4074 5.684 43.5274 6.068C43.6554 6.444 43.6594 6.896 43.5394 7.424L42.7114 11H42.1114L42.9274 7.436C43.0794 6.788 43.0234 6.288 42.7594 5.936C42.4954 5.584 42.0874 5.408 41.5354 5.408C41.0954 5.408 40.7114 5.504 40.3834 5.696C40.0554 5.88 39.7834 6.14 39.5674 6.476C39.3514 6.804 39.1914 7.188 39.0874 7.628L38.3074 11H37.7074ZM47.3326 11.108C46.8446 11.108 46.4206 10.996 46.0606 10.772C45.7006 10.54 45.4206 10.224 45.2206 9.824C45.0286 9.416 44.9326 8.952 44.9326 8.432C44.9326 7.936 45.0046 7.476 45.1486 7.052C45.2926 6.62 45.5006 6.244 45.7726 5.924C46.0446 5.596 46.3686 5.34 46.7446 5.156C47.1206 4.972 47.5366 4.88 47.9926 4.88C48.4086 4.88 48.7726 4.956 49.0846 5.108C49.3966 5.26 49.6446 5.48 49.8286 5.768C50.0126 6.048 50.1206 6.388 50.1526 6.788L51.1966 2.24H51.7966L49.7686 11H49.2406L49.5046 9.704C49.3046 10.112 49.0166 10.448 48.6406 10.712C48.2726 10.976 47.8366 11.108 47.3326 11.108ZM47.4766 10.592C47.8286 10.592 48.1526 10.508 48.4486 10.34C48.7446 10.164 48.9966 9.928 49.2046 9.632C49.4206 9.336 49.5886 9 49.7086 8.624C49.8286 8.24 49.8886 7.844 49.8886 7.436C49.8886 6.98 49.8046 6.604 49.6366 6.308C49.4686 6.004 49.2446 5.776 48.9646 5.624C48.6846 5.472 48.3686 5.396 48.0166 5.396C47.6486 5.396 47.3126 5.472 47.0086 5.624C46.7046 5.776 46.4406 5.988 46.2166 6.26C45.9926 6.532 45.8206 6.852 45.7006 7.22C45.5806 7.588 45.5206 7.992 45.5206 8.432C45.5206 8.888 45.6006 9.28 45.7606 9.608C45.9286 9.928 46.1606 10.172 46.4566 10.34C46.7526 10.508 47.0926 10.592 47.4766 10.592ZM54.7799 11.108C54.2119 11.108 53.7319 10.988 53.3399 10.748C52.9479 10.5 52.6479 10.172 52.4399 9.764C52.2319 9.348 52.1279 8.896 52.1279 8.408C52.1279 7.72 52.2559 7.112 52.5119 6.584C52.7759 6.056 53.1359 5.644 53.5919 5.348C54.0479 5.044 54.5799 4.892 55.1879 4.892C55.7639 4.892 56.2439 5.016 56.6279 5.264C57.0199 5.504 57.3159 5.828 57.5159 6.236C57.7239 6.636 57.8279 7.084 57.8279 7.58C57.8279 8.26 57.6999 8.868 57.4439 9.404C57.1879 9.932 56.8319 10.348 56.3759 10.652C55.9199 10.956 55.3879 11.108 54.7799 11.108ZM54.8039 10.592C55.1479 10.592 55.4679 10.524 55.7639 10.388C56.0599 10.244 56.3159 10.04 56.5319 9.776C56.7559 9.504 56.9239 9.184 57.0359 8.816C57.1559 8.448 57.2159 8.044 57.2159 7.604C57.2159 7.172 57.1359 6.792 56.9759 6.464C56.8239 6.136 56.5959 5.88 56.2919 5.696C55.9879 5.504 55.6119 5.408 55.1639 5.408C54.8199 5.408 54.4959 5.48 54.1919 5.624C53.8959 5.76 53.6399 5.96 53.4239 6.224C53.2079 6.488 53.0399 6.804 52.9199 7.172C52.7999 7.54 52.7399 7.944 52.7399 8.384C52.7399 8.808 52.8199 9.188 52.9799 9.524C53.1399 9.852 53.3719 10.112 53.6759 10.304C53.9879 10.496 54.3639 10.592 54.8039 10.592ZM60.2651 13.16C59.8971 12.568 59.6171 11.896 59.4251 11.144C59.2331 10.392 59.1371 9.632 59.1371 8.864C59.1371 8.168 59.2211 7.488 59.3891 6.824C59.5651 6.152 59.8091 5.516 60.1211 4.916C60.4411 4.316 60.8331 3.772 61.2971 3.284C61.7611 2.796 62.2811 2.384 62.8571 2.048L63.1091 2.42C62.3731 2.892 61.7531 3.472 61.2491 4.16C60.7531 4.848 60.3771 5.6 60.1211 6.416C59.8651 7.224 59.7371 8.056 59.7371 8.912C59.7371 9.616 59.8131 10.312 59.9651 11C60.1171 11.688 60.3491 12.324 60.6611 12.908L60.2651 13.16ZM64.5123 11.108C64.0243 11.108 63.6003 10.996 63.2403 10.772C62.8803 10.54 62.6003 10.224 62.4003 9.824C62.2083 9.416 62.1123 8.952 62.1123 8.432C62.1123 7.936 62.1843 7.476 62.3283 7.052C62.4723 6.62 62.6803 6.244 62.9523 5.924C63.2243 5.596 63.5483 5.34 63.9243 5.156C64.3003 4.972 64.7163 4.88 65.1723 4.88C65.5963 4.88 65.9603 4.96 66.2643 5.12C66.5763 5.272 66.8243 5.488 67.0083 5.768C67.1923 6.048 67.3003 6.376 67.3323 6.752L67.7403 5H68.3403L66.9483 11H66.4203L66.6843 9.704C66.4843 10.112 66.1963 10.448 65.8203 10.712C65.4523 10.976 65.0163 11.108 64.5123 11.108ZM64.6683 10.592C65.0123 10.592 65.3283 10.508 65.6163 10.34C65.9123 10.164 66.1683 9.928 66.3843 9.632C66.6003 9.336 66.7683 9 66.8883 8.624C67.0083 8.24 67.0683 7.844 67.0683 7.436C67.0683 6.98 66.9843 6.604 66.8163 6.308C66.6483 6.004 66.4243 5.776 66.1443 5.624C65.8643 5.472 65.5483 5.396 65.1963 5.396C64.8283 5.396 64.4923 5.472 64.1883 5.624C63.8843 5.776 63.6203 5.988 63.3963 6.26C63.1723 6.532 63.0003 6.852 62.8803 7.22C62.7603 7.588 62.7003 7.992 62.7003 8.432C62.7003 8.888 62.7803 9.28 62.9403 9.608C63.1083 9.928 63.3403 10.172 63.6363 10.34C63.9323 10.508 64.2763 10.592 64.6683 10.592ZM70.2652 2.048C70.6332 2.64 70.9092 3.312 71.0932 4.064C71.2852 4.816 71.3812 5.576 71.3812 6.344C71.3812 7.04 71.2972 7.724 71.1292 8.396C70.9612 9.06 70.7172 9.692 70.3972 10.292C70.0772 10.892 69.6852 11.436 69.2212 11.924C68.7652 12.412 68.2492 12.824 67.6732 13.16L67.4212 12.788C68.1572 12.316 68.7732 11.736 69.2692 11.048C69.7732 10.36 70.1532 9.608 70.4092 8.792C70.6652 7.976 70.7932 7.144 70.7932 6.296C70.7932 5.584 70.7172 4.888 70.5652 4.208C70.4132 3.52 70.1772 2.884 69.8572 2.3L70.2652 2.048ZM78.6217 11.108C78.1337 11.108 77.7097 10.996 77.3497 10.772C76.9897 10.54 76.7097 10.224 76.5097 9.824C76.3177 9.416 76.2217 8.952 76.2217 8.432C76.2217 7.936 76.2937 7.476 76.4377 7.052C76.5817 6.62 76.7897 6.244 77.0617 5.924C77.3337 5.596 77.6577 5.34 78.0337 5.156C78.4097 4.972 78.8257 4.88 79.2817 4.88C79.7057 4.88 80.0697 4.96 80.3737 5.12C80.6857 5.272 80.9337 5.488 81.1177 5.768C81.3017 6.048 81.4097 6.376 81.4417 6.752L81.8497 5H82.4497L81.0577 11H80.5297L80.7937 9.704C80.5937 10.112 80.3057 10.448 79.9297 10.712C79.5617 10.976 79.1257 11.108 78.6217 11.108ZM78.7777 10.592C79.1217 10.592 79.4377 10.508 79.7257 10.34C80.0217 10.164 80.2777 9.928 80.4937 9.632C80.7097 9.336 80.8777 9 80.9977 8.624C81.1177 8.24 81.1777 7.844 81.1777 7.436C81.1777 6.98 81.0937 6.604 80.9257 6.308C80.7577 6.004 80.5337 5.776 80.2537 5.624C79.9737 5.472 79.6577 5.396 79.3057 5.396C78.9377 5.396 78.6017 5.472 78.2977 5.624C77.9937 5.776 77.7297 5.988 77.5057 6.26C77.2817 6.532 77.1097 6.852 76.9897 7.22C76.8697 7.588 76.8097 7.992 76.8097 8.432C76.8097 8.888 76.8897 9.28 77.0497 9.608C77.2177 9.928 77.4497 10.172 77.7457 10.34C78.0417 10.508 78.3857 10.592 78.7777 10.592ZM86.069 11.108C85.501 11.108 85.021 10.988 84.629 10.748C84.237 10.5 83.937 10.172 83.729 9.764C83.521 9.348 83.417 8.896 83.417 8.408C83.417 7.72 83.545 7.112 83.801 6.584C84.065 6.056 84.425 5.644 84.881 5.348C85.337 5.044 85.869 4.892 86.477 4.892C87.053 4.892 87.533 5.016 87.917 5.264C88.309 5.504 88.605 5.828 88.805 6.236C89.013 6.636 89.117 7.084 89.117 7.58C89.117 8.26 88.989 8.868 88.733 9.404C88.477 9.932 88.121 10.348 87.665 10.652C87.209 10.956 86.677 11.108 86.069 11.108ZM86.093 10.592C86.437 10.592 86.757 10.524 87.053 10.388C87.349 10.244 87.605 10.04 87.821 9.776C88.045 9.504 88.213 9.184 88.325 8.816C88.445 8.448 88.505 8.044 88.505 7.604C88.505 7.172 88.425 6.792 88.265 6.464C88.113 6.136 87.885 5.88 87.581 5.696C87.277 5.504 86.901 5.408 86.453 5.408C86.109 5.408 85.785 5.48 85.481 5.624C85.185 5.76 84.929 5.96 84.713 6.224C84.497 6.488 84.329 6.804 84.209 7.172C84.089 7.54 84.029 7.944 84.029 8.384C84.029 8.808 84.109 9.188 84.269 9.524C84.429 9.852 84.661 10.112 84.965 10.304C85.277 10.496 85.653 10.592 86.093 10.592Z" fill="#020122"/>
<path d="M100.155 83.381C99.6746 83.381 99.2506 83.305 98.8826 83.153C98.5146 83.001 98.2146 82.789 97.9826 82.517C97.7506 82.245 97.5946 81.925 97.5146 81.557L98.0786 81.317C98.1746 81.805 98.3986 82.185 98.7506 82.457C99.1026 82.721 99.5746 82.853 100.167 82.853C100.679 82.853 101.075 82.737 101.355 82.505C101.635 82.273 101.775 81.977 101.775 81.617C101.775 81.361 101.703 81.157 101.559 81.005C101.415 80.853 101.179 80.729 100.851 80.633L99.7106 80.309C99.2466 80.181 98.8946 79.993 98.6546 79.745C98.4146 79.497 98.2946 79.193 98.2946 78.833C98.2946 78.497 98.3866 78.205 98.5706 77.957C98.7546 77.701 99.0106 77.501 99.3386 77.357C99.6746 77.205 100.063 77.129 100.503 77.129C101.079 77.129 101.579 77.261 102.003 77.525C102.427 77.789 102.707 78.193 102.843 78.737L102.303 78.989C102.239 78.693 102.119 78.445 101.943 78.245C101.775 78.045 101.563 77.897 101.307 77.801C101.051 77.705 100.767 77.657 100.455 77.657C99.9586 77.657 99.5706 77.761 99.2906 77.969C99.0186 78.169 98.8826 78.437 98.8826 78.773C98.8826 79.053 98.9706 79.273 99.1466 79.433C99.3306 79.585 99.5706 79.705 99.8666 79.793L101.091 80.141C101.507 80.261 101.823 80.441 102.039 80.681C102.255 80.913 102.363 81.201 102.363 81.545C102.363 81.913 102.267 82.237 102.075 82.517C101.891 82.789 101.631 83.001 101.295 83.153C100.967 83.305 100.587 83.381 100.155 83.381ZM106.396 83.357C105.852 83.357 105.384 83.237 104.992 82.997C104.6 82.757 104.304 82.433 104.104 82.025C103.904 81.609 103.804 81.153 103.804 80.657C103.804 80.033 103.924 79.453 104.164 78.917C104.404 78.381 104.756 77.953 105.22 77.633C105.684 77.305 106.244 77.141 106.9 77.141C107.38 77.141 107.788 77.245 108.124 77.453C108.468 77.661 108.732 77.945 108.916 78.305C109.1 78.657 109.192 79.061 109.192 79.517C109.192 79.637 109.184 79.765 109.168 79.901C109.152 80.037 109.124 80.173 109.084 80.309H104.116V79.793H108.808L108.556 79.985C108.572 79.905 108.584 79.825 108.592 79.745C108.6 79.665 108.604 79.585 108.604 79.505C108.604 79.153 108.536 78.841 108.4 78.569C108.264 78.289 108.064 78.069 107.8 77.909C107.544 77.741 107.232 77.657 106.864 77.657C106.456 77.657 106.096 77.741 105.784 77.909C105.48 78.069 105.224 78.293 105.016 78.581C104.808 78.861 104.652 79.181 104.548 79.541C104.452 79.901 104.404 80.277 104.404 80.669C104.404 81.093 104.488 81.469 104.656 81.797C104.824 82.117 105.06 82.373 105.364 82.565C105.676 82.749 106.04 82.841 106.456 82.841C106.912 82.833 107.3 82.729 107.62 82.529C107.948 82.321 108.208 82.057 108.4 81.737L108.88 82.049C108.712 82.305 108.504 82.533 108.256 82.733C108.016 82.933 107.74 83.089 107.428 83.201C107.116 83.305 106.772 83.357 106.396 83.357ZM112.525 83.357C112.045 83.357 111.637 83.257 111.301 83.057C110.973 82.857 110.745 82.565 110.617 82.181C110.489 81.797 110.485 81.337 110.605 80.801L111.433 77.249H112.033L111.217 80.801C111.057 81.457 111.113 81.961 111.385 82.313C111.665 82.657 112.089 82.829 112.657 82.829C113.081 82.829 113.453 82.737 113.773 82.553C114.093 82.369 114.357 82.109 114.565 81.773C114.781 81.437 114.937 81.053 115.033 80.621L115.813 77.249H116.413L115.021 83.249H114.493L114.793 81.749L114.889 81.785C114.705 82.273 114.405 82.657 113.989 82.937C113.573 83.217 113.085 83.357 112.525 83.357ZM123.489 83.357C123.001 83.357 122.577 83.245 122.217 83.021C121.857 82.789 121.577 82.473 121.377 82.073C121.185 81.665 121.089 81.201 121.089 80.681C121.089 80.185 121.161 79.725 121.305 79.301C121.449 78.869 121.657 78.493 121.929 78.173C122.201 77.845 122.525 77.589 122.901 77.405C123.277 77.221 123.693 77.129 124.149 77.129C124.573 77.129 124.937 77.209 125.241 77.369C125.553 77.521 125.801 77.737 125.985 78.017C126.169 78.297 126.277 78.625 126.309 79.001L126.717 77.249H127.317L125.925 83.249H125.397L125.661 81.953C125.461 82.361 125.173 82.697 124.797 82.961C124.429 83.225 123.993 83.357 123.489 83.357ZM123.645 82.841C123.989 82.841 124.305 82.757 124.593 82.589C124.889 82.413 125.145 82.177 125.361 81.881C125.577 81.585 125.745 81.249 125.865 80.873C125.985 80.489 126.045 80.093 126.045 79.685C126.045 79.229 125.961 78.853 125.793 78.557C125.625 78.253 125.401 78.025 125.121 77.873C124.841 77.721 124.525 77.645 124.173 77.645C123.805 77.645 123.469 77.721 123.165 77.873C122.861 78.025 122.597 78.237 122.373 78.509C122.149 78.781 121.977 79.101 121.857 79.469C121.737 79.837 121.677 80.241 121.677 80.681C121.677 81.137 121.757 81.529 121.917 81.857C122.085 82.177 122.317 82.421 122.613 82.589C122.909 82.757 123.253 82.841 123.645 82.841ZM127.432 85.769L129.4 77.249H129.928L129.58 78.929L129.484 78.953C129.596 78.569 129.768 78.245 130 77.981C130.24 77.709 130.528 77.501 130.864 77.357C131.2 77.213 131.56 77.141 131.944 77.141C132.4 77.141 132.8 77.253 133.144 77.477C133.488 77.701 133.756 78.013 133.948 78.413C134.14 78.813 134.236 79.273 134.236 79.793C134.236 80.289 134.164 80.757 134.02 81.197C133.876 81.629 133.672 82.009 133.408 82.337C133.144 82.657 132.828 82.909 132.46 83.093C132.092 83.277 131.684 83.369 131.236 83.369C130.78 83.369 130.384 83.273 130.048 83.081C129.712 82.889 129.452 82.621 129.268 82.277C129.092 81.925 129 81.525 128.992 81.077L129.16 80.861L128.032 85.769H127.432ZM131.248 82.853C131.592 82.853 131.908 82.777 132.196 82.625C132.492 82.473 132.748 82.257 132.964 81.977C133.18 81.697 133.348 81.373 133.468 81.005C133.588 80.637 133.648 80.233 133.648 79.793C133.648 79.345 133.564 78.961 133.396 78.641C133.236 78.321 133.016 78.077 132.736 77.909C132.456 77.741 132.132 77.657 131.764 77.657C131.388 77.657 131.052 77.737 130.756 77.897C130.46 78.049 130.204 78.269 129.988 78.557C129.772 78.837 129.604 79.169 129.484 79.553C129.372 79.937 129.316 80.353 129.316 80.801C129.316 81.425 129.488 81.925 129.832 82.301C130.176 82.669 130.648 82.853 131.248 82.853ZM134.627 85.769L136.595 77.249H137.123L136.775 78.929L136.679 78.953C136.791 78.569 136.963 78.245 137.195 77.981C137.435 77.709 137.723 77.501 138.059 77.357C138.395 77.213 138.755 77.141 139.139 77.141C139.595 77.141 139.995 77.253 140.339 77.477C140.683 77.701 140.951 78.013 141.143 78.413C141.335 78.813 141.431 79.273 141.431 79.793C141.431 80.289 141.359 80.757 141.215 81.197C141.071 81.629 140.867 82.009 140.603 82.337C140.339 82.657 140.023 82.909 139.655 83.093C139.287 83.277 138.879 83.369 138.431 83.369C137.975 83.369 137.579 83.273 137.243 83.081C136.907 82.889 136.647 82.621 136.463 82.277C136.287 81.925 136.195 81.525 136.187 81.077L136.355 80.861L135.227 85.769H134.627ZM138.443 82.853C138.787 82.853 139.103 82.777 139.391 82.625C139.687 82.473 139.943 82.257 140.159 81.977C140.375 81.697 140.543 81.373 140.663 81.005C140.783 80.637 140.843 80.233 140.843 79.793C140.843 79.345 140.759 78.961 140.591 78.641C140.431 78.321 140.211 78.077 139.931 77.909C139.651 77.741 139.327 77.657 138.959 77.657C138.583 77.657 138.247 77.737 137.951 77.897C137.655 78.049 137.399 78.269 137.183 78.557C136.967 78.837 136.799 79.169 136.679 79.553C136.567 79.937 136.511 80.353 136.511 80.801C136.511 81.425 136.683 81.925 137.027 82.301C137.371 82.669 137.843 82.853 138.443 82.853ZM148.778 83.357C148.29 83.357 147.866 83.245 147.506 83.021C147.146 82.789 146.866 82.473 146.666 82.073C146.474 81.665 146.378 81.201 146.378 80.681C146.378 80.185 146.45 79.725 146.594 79.301C146.738 78.869 146.946 78.493 147.218 78.173C147.49 77.845 147.814 77.589 148.19 77.405C148.566 77.221 148.982 77.129 149.438 77.129C149.854 77.129 150.218 77.205 150.53 77.357C150.842 77.509 151.09 77.729 151.274 78.017C151.458 78.297 151.566 78.637 151.598 79.037L152.642 74.489H153.242L151.214 83.249H150.686L150.95 81.953C150.75 82.361 150.462 82.697 150.086 82.961C149.718 83.225 149.282 83.357 148.778 83.357ZM148.922 82.841C149.274 82.841 149.598 82.757 149.894 82.589C150.19 82.413 150.442 82.177 150.65 81.881C150.866 81.585 151.034 81.249 151.154 80.873C151.274 80.489 151.334 80.093 151.334 79.685C151.334 79.229 151.25 78.853 151.082 78.557C150.914 78.253 150.69 78.025 150.41 77.873C150.13 77.721 149.814 77.645 149.462 77.645C149.094 77.645 148.758 77.721 148.454 77.873C148.15 78.025 147.886 78.237 147.662 78.509C147.438 78.781 147.266 79.101 147.146 79.469C147.026 79.837 146.966 80.241 146.966 80.681C146.966 81.137 147.046 81.529 147.206 81.857C147.374 82.177 147.606 82.421 147.902 82.589C148.198 82.757 148.538 82.841 148.922 82.841ZM156.165 83.357C155.621 83.357 155.153 83.237 154.761 82.997C154.369 82.757 154.073 82.433 153.873 82.025C153.673 81.609 153.573 81.153 153.573 80.657C153.573 80.033 153.693 79.453 153.933 78.917C154.173 78.381 154.525 77.953 154.989 77.633C155.453 77.305 156.013 77.141 156.669 77.141C157.149 77.141 157.557 77.245 157.893 77.453C158.237 77.661 158.501 77.945 158.685 78.305C158.869 78.657 158.961 79.061 158.961 79.517C158.961 79.637 158.953 79.765 158.937 79.901C158.921 80.037 158.893 80.173 158.853 80.309H153.885V79.793H158.577L158.325 79.985C158.341 79.905 158.353 79.825 158.361 79.745C158.369 79.665 158.373 79.585 158.373 79.505C158.373 79.153 158.305 78.841 158.169 78.569C158.033 78.289 157.833 78.069 157.569 77.909C157.313 77.741 157.001 77.657 156.633 77.657C156.225 77.657 155.865 77.741 155.553 77.909C155.249 78.069 154.993 78.293 154.785 78.581C154.577 78.861 154.421 79.181 154.317 79.541C154.221 79.901 154.173 80.277 154.173 80.669C154.173 81.093 154.257 81.469 154.425 81.797C154.593 82.117 154.829 82.373 155.133 82.565C155.445 82.749 155.809 82.841 156.225 82.841C156.681 82.833 157.069 82.729 157.389 82.529C157.717 82.321 157.977 82.057 158.169 81.737L158.649 82.049C158.481 82.305 158.273 82.533 158.025 82.733C157.785 82.933 157.509 83.089 157.197 83.201C156.885 83.305 156.541 83.357 156.165 83.357ZM163.783 83.249L165.427 76.145C165.515 75.769 165.643 75.453 165.811 75.197C165.987 74.941 166.207 74.749 166.471 74.621C166.735 74.493 167.047 74.429 167.407 74.429C167.607 74.429 167.791 74.457 167.959 74.513C168.135 74.561 168.275 74.633 168.379 74.729L168.163 75.221C168.083 75.141 167.975 75.081 167.839 75.041C167.703 74.993 167.559 74.969 167.407 74.969C166.999 74.969 166.683 75.081 166.459 75.305C166.243 75.521 166.079 75.869 165.967 76.349L165.763 77.249L165.715 77.465L164.383 83.249H163.783ZM163.831 77.765L163.951 77.249H167.731L167.611 77.765H163.831ZM169.639 76.085C169.503 76.085 169.391 76.045 169.303 75.965C169.223 75.877 169.183 75.769 169.183 75.641C169.183 75.465 169.235 75.329 169.339 75.233C169.443 75.129 169.567 75.077 169.711 75.077C169.847 75.077 169.955 75.121 170.035 75.209C170.123 75.289 170.167 75.393 170.167 75.521C170.167 75.689 170.115 75.825 170.011 75.929C169.915 76.033 169.791 76.085 169.639 76.085ZM169.591 77.249L168.199 83.249H167.599L168.991 77.249H169.591ZM170.289 83.249L171.681 77.249H172.209L171.909 78.749L171.825 78.713C171.993 78.225 172.293 77.841 172.725 77.561C173.165 77.273 173.681 77.129 174.273 77.129C174.745 77.129 175.137 77.233 175.449 77.441C175.769 77.641 175.989 77.933 176.109 78.317C176.237 78.693 176.241 79.145 176.121 79.673L175.293 83.249H174.693L175.509 79.685C175.661 79.037 175.605 78.537 175.341 78.185C175.077 77.833 174.669 77.657 174.117 77.657C173.677 77.657 173.293 77.753 172.965 77.945C172.637 78.129 172.365 78.389 172.149 78.725C171.933 79.053 171.773 79.437 171.669 79.877L170.889 83.249H170.289ZM179.915 83.357C179.427 83.357 179.003 83.245 178.643 83.021C178.283 82.789 178.003 82.473 177.803 82.073C177.611 81.665 177.515 81.201 177.515 80.681C177.515 80.185 177.587 79.725 177.731 79.301C177.875 78.869 178.083 78.493 178.355 78.173C178.627 77.845 178.951 77.589 179.327 77.405C179.703 77.221 180.119 77.129 180.575 77.129C180.999 77.129 181.363 77.209 181.667 77.369C181.979 77.521 182.227 77.737 182.411 78.017C182.595 78.297 182.703 78.625 182.735 79.001L183.143 77.249H183.743L182.351 83.249H181.823L182.087 81.953C181.887 82.361 181.599 82.697 181.223 82.961C180.855 83.225 180.419 83.357 179.915 83.357ZM180.071 82.841C180.415 82.841 180.731 82.757 181.019 82.589C181.315 82.413 181.571 82.177 181.787 81.881C182.003 81.585 182.171 81.249 182.291 80.873C182.411 80.489 182.471 80.093 182.471 79.685C182.471 79.229 182.387 78.853 182.219 78.557C182.051 78.253 181.827 78.025 181.547 77.873C181.267 77.721 180.951 77.645 180.599 77.645C180.231 77.645 179.895 77.721 179.591 77.873C179.287 78.025 179.023 78.237 178.799 78.509C178.575 78.781 178.403 79.101 178.283 79.469C178.163 79.837 178.103 80.241 178.103 80.681C178.103 81.137 178.183 81.529 178.343 81.857C178.511 82.177 178.743 82.421 179.039 82.589C179.335 82.757 179.679 82.841 180.071 82.841ZM184.434 83.249L185.826 77.249H186.354L186.054 78.749L185.97 78.713C186.138 78.225 186.438 77.841 186.87 77.561C187.31 77.273 187.826 77.129 188.418 77.129C188.89 77.129 189.282 77.233 189.594 77.441C189.914 77.641 190.134 77.933 190.254 78.317C190.382 78.693 190.386 79.145 190.266 79.673L189.438 83.249H188.838L189.654 79.685C189.806 79.037 189.75 78.537 189.486 78.185C189.222 77.833 188.814 77.657 188.262 77.657C187.822 77.657 187.438 77.753 187.11 77.945C186.782 78.129 186.51 78.389 186.294 78.725C186.078 79.053 185.918 79.437 185.814 79.877L185.034 83.249H184.434ZM194.263 83.357C193.743 83.357 193.287 83.241 192.895 83.009C192.503 82.777 192.199 82.457 191.983 82.049C191.767 81.641 191.659 81.177 191.659 80.657C191.659 79.985 191.787 79.385 192.043 78.857C192.299 78.329 192.659 77.913 193.123 77.609C193.587 77.297 194.131 77.141 194.755 77.141C195.171 77.141 195.539 77.217 195.859 77.369C196.187 77.513 196.455 77.721 196.663 77.993C196.871 78.265 197.011 78.581 197.083 78.941L196.471 79.085C196.399 78.661 196.215 78.317 195.919 78.053C195.631 77.789 195.231 77.657 194.719 77.657C194.351 77.657 194.015 77.733 193.711 77.885C193.415 78.029 193.159 78.237 192.943 78.509C192.727 78.781 192.559 79.097 192.439 79.457C192.327 79.817 192.271 80.209 192.271 80.633C192.271 81.073 192.355 81.461 192.523 81.797C192.699 82.125 192.939 82.381 193.243 82.565C193.547 82.749 193.907 82.841 194.323 82.841C194.723 82.841 195.083 82.737 195.403 82.529C195.731 82.313 195.971 82.025 196.123 81.665L196.687 81.881C196.479 82.337 196.163 82.697 195.739 82.961C195.315 83.225 194.823 83.357 194.263 83.357ZM193.531 83.201L193.915 83.045C194.195 83.197 194.415 83.381 194.575 83.597C194.735 83.813 194.815 84.073 194.815 84.377C194.815 84.673 194.751 84.921 194.623 85.121C194.495 85.329 194.323 85.485 194.107 85.589C193.899 85.693 193.667 85.745 193.411 85.745C193.123 85.745 192.883 85.689 192.691 85.577C192.499 85.465 192.363 85.341 192.283 85.205L192.535 84.833C192.631 84.969 192.751 85.077 192.895 85.157C193.039 85.237 193.215 85.277 193.423 85.277C193.695 85.277 193.915 85.193 194.083 85.025C194.251 84.857 194.335 84.637 194.335 84.365C194.335 84.117 194.267 83.901 194.131 83.717C193.995 83.533 193.795 83.361 193.531 83.201ZM200.364 83.357C199.876 83.357 199.452 83.245 199.092 83.021C198.732 82.789 198.452 82.473 198.252 82.073C198.06 81.665 197.964 81.201 197.964 80.681C197.964 80.185 198.036 79.725 198.18 79.301C198.324 78.869 198.532 78.493 198.804 78.173C199.076 77.845 199.4 77.589 199.776 77.405C200.152 77.221 200.568 77.129 201.024 77.129C201.448 77.129 201.812 77.209 202.116 77.369C202.428 77.521 202.676 77.737 202.86 78.017C203.044 78.297 203.152 78.625 203.184 79.001L203.592 77.249H204.192L202.8 83.249H202.272L202.536 81.953C202.336 82.361 202.048 82.697 201.672 82.961C201.304 83.225 200.868 83.357 200.364 83.357ZM200.52 82.841C200.864 82.841 201.18 82.757 201.468 82.589C201.764 82.413 202.02 82.177 202.236 81.881C202.452 81.585 202.62 81.249 202.74 80.873C202.86 80.489 202.92 80.093 202.92 79.685C202.92 79.229 202.836 78.853 202.668 78.557C202.5 78.253 202.276 78.025 201.996 77.873C201.716 77.721 201.4 77.645 201.048 77.645C200.68 77.645 200.344 77.721 200.04 77.873C199.736 78.025 199.472 78.237 199.248 78.509C199.024 78.781 198.852 79.101 198.732 79.469C198.612 79.837 198.552 80.241 198.552 80.681C198.552 81.137 198.632 81.529 198.792 81.857C198.96 82.177 199.192 82.421 199.488 82.589C199.784 82.757 200.128 82.841 200.52 82.841ZM207.463 83.381C206.983 83.381 206.559 83.305 206.191 83.153C205.823 83.001 205.523 82.789 205.291 82.517C205.059 82.245 204.903 81.925 204.823 81.557L205.387 81.317C205.483 81.805 205.707 82.185 206.059 82.457C206.411 82.721 206.883 82.853 207.475 82.853C207.987 82.853 208.383 82.737 208.663 82.505C208.943 82.273 209.083 81.977 209.083 81.617C209.083 81.361 209.011 81.157 208.867 81.005C208.723 80.853 208.487 80.729 208.159 80.633L207.019 80.309C206.555 80.181 206.203 79.993 205.963 79.745C205.723 79.497 205.603 79.193 205.603 78.833C205.603 78.497 205.695 78.205 205.879 77.957C206.063 77.701 206.319 77.501 206.647 77.357C206.983 77.205 207.371 77.129 207.811 77.129C208.387 77.129 208.887 77.261 209.311 77.525C209.735 77.789 210.015 78.193 210.151 78.737L209.611 78.989C209.547 78.693 209.427 78.445 209.251 78.245C209.083 78.045 208.871 77.897 208.615 77.801C208.359 77.705 208.075 77.657 207.763 77.657C207.267 77.657 206.879 77.761 206.599 77.969C206.327 78.169 206.191 78.437 206.191 78.773C206.191 79.053 206.279 79.273 206.455 79.433C206.639 79.585 206.879 79.705 207.175 79.793L208.399 80.141C208.815 80.261 209.131 80.441 209.347 80.681C209.563 80.913 209.671 81.201 209.671 81.545C209.671 81.913 209.575 82.237 209.383 82.517C209.199 82.789 208.939 83.001 208.603 83.153C208.275 83.305 207.895 83.381 207.463 83.381ZM214.022 85.769L215.99 77.249H216.518L216.17 78.929L216.074 78.953C216.186 78.569 216.358 78.245 216.59 77.981C216.83 77.709 217.118 77.501 217.454 77.357C217.79 77.213 218.15 77.141 218.534 77.141C218.99 77.141 219.39 77.253 219.734 77.477C220.078 77.701 220.346 78.013 220.538 78.413C220.73 78.813 220.826 79.273 220.826 79.793C220.826 80.289 220.754 80.757 220.61 81.197C220.466 81.629 220.262 82.009 219.998 82.337C219.734 82.657 219.418 82.909 219.05 83.093C218.682 83.277 218.274 83.369 217.826 83.369C217.37 83.369 216.974 83.273 216.638 83.081C216.302 82.889 216.042 82.621 215.858 82.277C215.682 81.925 215.59 81.525 215.582 81.077L215.75 80.861L214.622 85.769H214.022ZM217.838 82.853C218.182 82.853 218.498 82.777 218.786 82.625C219.082 82.473 219.338 82.257 219.554 81.977C219.77 81.697 219.938 81.373 220.058 81.005C220.178 80.637 220.238 80.233 220.238 79.793C220.238 79.345 220.154 78.961 219.986 78.641C219.826 78.321 219.606 78.077 219.326 77.909C219.046 77.741 218.722 77.657 218.354 77.657C217.978 77.657 217.642 77.737 217.346 77.897C217.05 78.049 216.794 78.269 216.578 78.557C216.362 78.837 216.194 79.169 216.074 79.553C215.962 79.937 215.906 80.353 215.906 80.801C215.906 81.425 216.078 81.925 216.422 82.301C216.766 82.669 217.238 82.853 217.838 82.853ZM224.661 83.357C224.117 83.357 223.649 83.237 223.257 82.997C222.865 82.757 222.569 82.433 222.369 82.025C222.169 81.609 222.069 81.153 222.069 80.657C222.069 80.033 222.189 79.453 222.429 78.917C222.669 78.381 223.021 77.953 223.485 77.633C223.949 77.305 224.509 77.141 225.165 77.141C225.645 77.141 226.053 77.245 226.389 77.453C226.733 77.661 226.997 77.945 227.181 78.305C227.365 78.657 227.457 79.061 227.457 79.517C227.457 79.637 227.449 79.765 227.433 79.901C227.417 80.037 227.389 80.173 227.349 80.309H222.381V79.793H227.073L226.821 79.985C226.837 79.905 226.849 79.825 226.857 79.745C226.865 79.665 226.869 79.585 226.869 79.505C226.869 79.153 226.801 78.841 226.665 78.569C226.529 78.289 226.329 78.069 226.065 77.909C225.809 77.741 225.497 77.657 225.129 77.657C224.721 77.657 224.361 77.741 224.049 77.909C223.745 78.069 223.489 78.293 223.281 78.581C223.073 78.861 222.917 79.181 222.813 79.541C222.717 79.901 222.669 80.277 222.669 80.669C222.669 81.093 222.753 81.469 222.921 81.797C223.089 82.117 223.325 82.373 223.629 82.565C223.941 82.749 224.305 82.841 224.721 82.841C225.177 82.833 225.565 82.729 225.885 82.529C226.213 82.321 226.473 82.057 226.665 81.737L227.145 82.049C226.977 82.305 226.769 82.533 226.521 82.733C226.281 82.933 226.005 83.089 225.693 83.201C225.381 83.305 225.037 83.357 224.661 83.357ZM230.983 83.381C230.503 83.381 230.079 83.305 229.711 83.153C229.343 83.001 229.043 82.789 228.811 82.517C228.579 82.245 228.423 81.925 228.343 81.557L228.907 81.317C229.003 81.805 229.227 82.185 229.579 82.457C229.931 82.721 230.403 82.853 230.995 82.853C231.507 82.853 231.903 82.737 232.183 82.505C232.463 82.273 232.603 81.977 232.603 81.617C232.603 81.361 232.531 81.157 232.387 81.005C232.243 80.853 232.007 80.729 231.679 80.633L230.539 80.309C230.075 80.181 229.723 79.993 229.483 79.745C229.243 79.497 229.123 79.193 229.123 78.833C229.123 78.497 229.215 78.205 229.399 77.957C229.583 77.701 229.839 77.501 230.167 77.357C230.503 77.205 230.891 77.129 231.331 77.129C231.907 77.129 232.407 77.261 232.831 77.525C233.255 77.789 233.535 78.193 233.671 78.737L233.131 78.989C233.067 78.693 232.947 78.445 232.771 78.245C232.603 78.045 232.391 77.897 232.135 77.801C231.879 77.705 231.595 77.657 231.283 77.657C230.787 77.657 230.399 77.761 230.119 77.969C229.847 78.169 229.711 78.437 229.711 78.773C229.711 79.053 229.799 79.273 229.975 79.433C230.159 79.585 230.399 79.705 230.695 79.793L231.919 80.141C232.335 80.261 232.651 80.441 232.867 80.681C233.083 80.913 233.191 81.201 233.191 81.545C233.191 81.913 233.095 82.237 232.903 82.517C232.719 82.789 232.459 83.001 232.123 83.153C231.795 83.305 231.415 83.381 230.983 83.381ZM236.994 83.381C236.514 83.381 236.09 83.305 235.722 83.153C235.354 83.001 235.054 82.789 234.822 82.517C234.59 82.245 234.434 81.925 234.354 81.557L234.918 81.317C235.014 81.805 235.238 82.185 235.59 82.457C235.942 82.721 236.414 82.853 237.006 82.853C237.518 82.853 237.914 82.737 238.194 82.505C238.474 82.273 238.614 81.977 238.614 81.617C238.614 81.361 238.542 81.157 238.398 81.005C238.254 80.853 238.018 80.729 237.69 80.633L236.55 80.309C236.086 80.181 235.734 79.993 235.494 79.745C235.254 79.497 235.134 79.193 235.134 78.833C235.134 78.497 235.226 78.205 235.41 77.957C235.594 77.701 235.85 77.501 236.178 77.357C236.514 77.205 236.902 77.129 237.342 77.129C237.918 77.129 238.418 77.261 238.842 77.525C239.266 77.789 239.546 78.193 239.682 78.737L239.142 78.989C239.078 78.693 238.958 78.445 238.782 78.245C238.614 78.045 238.402 77.897 238.146 77.801C237.89 77.705 237.606 77.657 237.294 77.657C236.798 77.657 236.41 77.761 236.13 77.969C235.858 78.169 235.722 78.437 235.722 78.773C235.722 79.053 235.81 79.273 235.986 79.433C236.17 79.585 236.41 79.705 236.706 79.793L237.93 80.141C238.346 80.261 238.662 80.441 238.878 80.681C239.094 80.913 239.202 81.201 239.202 81.545C239.202 81.913 239.106 82.237 238.914 82.517C238.73 82.789 238.47 83.001 238.134 83.153C237.806 83.305 237.426 83.381 236.994 83.381ZM243.296 83.357C242.728 83.357 242.248 83.237 241.856 82.997C241.464 82.749 241.164 82.421 240.956 82.013C240.748 81.597 240.644 81.145 240.644 80.657C240.644 79.969 240.772 79.361 241.028 78.833C241.292 78.305 241.652 77.893 242.108 77.597C242.564 77.293 243.096 77.141 243.704 77.141C244.28 77.141 244.76 77.265 245.144 77.513C245.536 77.753 245.832 78.077 246.032 78.485C246.24 78.885 246.344 79.333 246.344 79.829C246.344 80.509 246.216 81.117 245.96 81.653C245.704 82.181 245.348 82.597 244.892 82.901C244.436 83.205 243.904 83.357 243.296 83.357ZM243.32 82.841C243.664 82.841 243.984 82.773 244.28 82.637C244.576 82.493 244.832 82.289 245.048 82.025C245.272 81.753 245.44 81.433 245.552 81.065C245.672 80.697 245.732 80.293 245.732 79.853C245.732 79.421 245.652 79.041 245.492 78.713C245.34 78.385 245.112 78.129 244.808 77.945C244.504 77.753 244.128 77.657 243.68 77.657C243.336 77.657 243.012 77.729 242.708 77.873C242.412 78.009 242.156 78.209 241.94 78.473C241.724 78.737 241.556 79.053 241.436 79.421C241.316 79.789 241.256 80.193 241.256 80.633C241.256 81.057 241.336 81.437 241.496 81.773C241.656 82.101 241.888 82.361 242.192 82.553C242.504 82.745 242.88 82.841 243.32 82.841ZM249.993 83.357C249.505 83.357 249.081 83.245 248.721 83.021C248.361 82.789 248.081 82.473 247.881 82.073C247.689 81.665 247.593 81.201 247.593 80.681C247.593 80.185 247.665 79.725 247.809 79.301C247.953 78.869 248.161 78.493 248.433 78.173C248.705 77.845 249.029 77.589 249.405 77.405C249.781 77.221 250.197 77.129 250.653 77.129C251.077 77.129 251.441 77.209 251.745 77.369C252.057 77.521 252.305 77.737 252.489 78.017C252.673 78.297 252.781 78.625 252.813 79.001L253.221 77.249H253.821L252.429 83.249H251.901L252.165 81.953C251.965 82.361 251.677 82.697 251.301 82.961C250.933 83.225 250.497 83.357 249.993 83.357ZM250.149 82.841C250.493 82.841 250.809 82.757 251.097 82.589C251.393 82.413 251.649 82.177 251.865 81.881C252.081 81.585 252.249 81.249 252.369 80.873C252.489 80.489 252.549 80.093 252.549 79.685C252.549 79.229 252.465 78.853 252.297 78.557C252.129 78.253 251.905 78.025 251.625 77.873C251.345 77.721 251.029 77.645 250.677 77.645C250.309 77.645 249.973 77.721 249.669 77.873C249.365 78.025 249.101 78.237 248.877 78.509C248.653 78.781 248.481 79.101 248.361 79.469C248.241 79.837 248.181 80.241 248.181 80.681C248.181 81.137 248.261 81.529 248.421 81.857C248.589 82.177 248.821 82.421 249.117 82.589C249.413 82.757 249.757 82.841 250.149 82.841ZM255.88 83.345C255.408 83.345 255.084 83.197 254.908 82.901C254.732 82.597 254.704 82.185 254.824 81.665L256.492 74.489H257.092L255.412 81.701C255.324 82.085 255.336 82.369 255.448 82.553C255.56 82.729 255.776 82.817 256.096 82.817C256.232 82.817 256.344 82.813 256.432 82.805C256.52 82.789 256.608 82.769 256.696 82.745L256.552 83.225C256.456 83.265 256.352 83.293 256.24 83.309C256.136 83.333 256.016 83.345 255.88 83.345ZM258.082 83.345C257.938 83.345 257.818 83.301 257.722 83.213C257.634 83.125 257.59 83.013 257.59 82.877C257.59 82.693 257.642 82.545 257.746 82.433C257.858 82.321 257.994 82.265 258.154 82.265C258.29 82.265 258.402 82.309 258.49 82.397C258.586 82.485 258.634 82.597 258.634 82.733C258.634 82.917 258.578 83.065 258.466 83.177C258.362 83.289 258.234 83.345 258.082 83.345Z" fill="#020122"/>
<g clip-path="url(#clip0_3_161)">
<path fill-rule="evenodd" clip-rule="evenodd" d="M4.5827 52.0041C2.05384 52.0041 -3.8147e-06 54.073 -3.8147e-06 56.6205C-3.8147e-06 59.1681 2.05384 61.2588 4.5827 61.2588C5.0771 61.2588 5.56354 61.1758 6.03103 61.0192C13.4944 72.546 28.3037 75.2058 39.1474 68.9673C39.4642 68.7849 39.5878 68.3285 39.4067 68.0092C39.2256 67.69 38.7725 67.5655 38.4556 67.7479C28.2624 73.6122 14.3467 71.1812 7.26316 60.366C8.41432 59.5236 9.1654 58.1585 9.1654 56.6205C9.1654 54.073 7.11178 52.0041 4.5827 52.0041Z" fill="#61C0BF"/>
<path fill-rule="evenodd" clip-rule="evenodd" d="M39.1474 26.0256C38.5695 26.0996 38.3955 27.0564 38.9097 27.3321C47.0712 32.3448 51.6283 42.1537 49.6313 52.0694C49.3925 52.0285 49.144 52.0041 48.8964 52.0041C46.3675 52.0041 44.3137 54.073 44.3137 56.6205C44.3137 59.1681 46.3675 61.2588 48.8964 61.2588C51.4252 61.2588 53.4791 59.1681 53.4791 56.6205C53.4791 54.8204 52.4539 53.26 50.95 52.505C53.1423 41.9592 48.3178 31.4747 39.6231 26.1345C39.5077 26.0606 39.3703 26.0221 39.2338 26.0256C39.2047 26.0238 39.1765 26.0238 39.1474 26.0256Z" fill="#61C0BF"/>
<path fill-rule="evenodd" clip-rule="evenodd" d="M26.7395 18.5783C24.3011 18.5783 22.3188 20.5116 22.1786 22.9334C11.7276 24.8812 4.11263 33.2118 2.37791 43.0978C2.35802 43.1896 2.35676 43.2845 2.37423 43.3769C2.39169 43.4692 2.42751 43.557 2.47954 43.635C2.53156 43.713 2.59871 43.7796 2.67695 43.8308C2.75518 43.882 2.84289 43.9168 2.9348 43.9329C3.0267 43.9491 3.1209 43.9463 3.21173 43.9249C3.30256 43.9034 3.38815 43.8637 3.46334 43.8081C3.53853 43.7524 3.60177 43.682 3.64926 43.6011C3.69675 43.5202 3.7275 43.4305 3.73967 43.3373C5.36909 34.0518 12.4837 26.2171 22.2865 24.3271C22.7888 26.3308 24.5974 27.8112 26.7395 27.8112C29.2684 27.8112 31.3222 25.7423 31.3222 23.1947C31.3222 20.6472 29.2684 18.5783 26.7395 18.5783Z" fill="#61C0BF"/>
<path d="M70.1971 54.1906H81.117V56.7576H69.5412H67.4753V33.7206H70.1971H80.8219V36.2875H70.1971V43.9227H78.4608V46.4238H70.1971V54.1906ZM103.514 54.2894C101.416 56.0994 98.7593 57.0867 95.808 57.0867C89.8398 57.0867 84.0683 52.216 84.0683 45.2391C84.0683 38.2621 89.8398 33.3915 95.808 33.3915C98.7265 33.3915 101.35 34.3788 103.416 36.123L101.743 38.0318C100.137 36.7483 98.0707 35.9914 96.0048 35.9914C91.3154 35.9914 86.8885 39.8089 86.8885 45.2391C86.8885 50.6692 91.3154 54.4868 96.0048 54.4868C98.1035 54.4868 100.202 53.697 101.809 52.3806L103.514 54.2894ZM117.877 33.3915C123.846 33.3915 129.617 38.2621 129.617 45.2391C129.617 52.216 123.846 57.0867 117.877 57.0867C111.876 57.0867 106.138 52.216 106.138 45.2391C106.138 38.2621 111.876 33.3915 117.877 33.3915ZM117.877 54.4868C122.37 54.4868 126.797 50.6692 126.797 45.2391C126.797 39.8089 122.37 35.9914 117.877 35.9914C113.352 35.9914 108.958 39.8089 108.958 45.2391C108.958 50.6692 113.352 54.4868 117.877 54.4868ZM149.063 33.7206H151.785V56.7576H149.686L135.782 38.7229V56.7576H133.06V33.7206H135.159L149.063 51.7882V33.7206ZM166.968 33.3915C172.936 33.3915 178.707 38.2621 178.707 45.2391C178.707 52.216 172.936 57.0867 166.968 57.0867C160.967 57.0867 155.228 52.216 155.228 45.2391C155.228 38.2621 160.967 33.3915 166.968 33.3915ZM166.968 54.4868C171.46 54.4868 175.887 50.6692 175.887 45.2391C175.887 39.8089 171.46 35.9914 166.968 35.9914C162.442 35.9914 158.048 39.8089 158.048 45.2391C158.048 50.6692 162.442 54.4868 166.968 54.4868ZM200.711 33.7206H203.597L193.333 56.7576H191.07L180.839 33.7206H183.725L192.218 53.1704L200.711 33.7206ZM208.942 33.7206V56.7576H206.22V33.7206H208.942ZM215.599 54.1906H226.519V56.7576H214.943H212.877V33.7206H215.599H226.224V36.2875H215.599V43.9227H223.863V46.4238H215.599V54.1906ZM260 33.7206L252.589 56.7576H250.818L244.489 38.7558L238.193 56.7576H236.422L228.978 33.7206H231.798L237.406 51.13L243.538 33.7206H245.44L251.605 51.13L257.213 33.7206H260Z" fill="#020122"/>
</g>
<defs>
<clipPath id="clip0_3_161">
<rect width="260" height="53.6707" fill="white" transform="translate(0 18.5783)"/>
</clipPath>
</defs>
</svg>
